<svg id="Calque_1" data-name="Calque 1" xmlns="http://www.w3.org/2000/svg" viewBox="0 0 1920 800"><defs><style>.cls-1{fill:#300;}.cls-2{fill:#99f;}.cls-3{fill:#ff9a00;}</style></defs><rect id="rect4138" class="cls-1" width="1920" height="800"/><g id="vlpe"><g id="vlpf"><path class="cls-2" d="M916.87,458.3h-53.3l-10.89,33.82a2.52,2.52,0,0,1-2.73,2H823c-1.57,0-2-.86-1.57-2.58l46.14-132.26c.43-1.44.86-2.72,1.43-4.44a50.41,50.41,0,0,0,.86-9.32A1.41,1.41,0,0,1,871,344h37.11c1,0,1.72.43,1.86,1.14L962.3,491.26c.43,1.58,0,2.29-1.44,2.29h-30a2.16,2.16,0,0,1-2.29-1.57l-11.75-34.39Zm-45-28.51h36.39c-.86-3-2-6.59-3.29-10.32s-2.58-8-3.87-12.32S898.39,398.41,897,394s-2.72-8.59-3.87-12.75c-1.14-4-2.14-7.74-3.15-11.18h-.28a174.58,174.58,0,0,1-4.88,18.49c-2.15,6.88-4.3,14-6.59,21.21C876.32,417,874,423.77,871.88,429.79Z"/><path class="cls-2" d="M1046.7,445.41h-45.43a31.62,31.62,0,0,0,4.44,12.75,22.77,22.77,0,0,0,10.46,8.6,44.77,44.77,0,0,0,18.35,3.58,85.21,85.21,0,0,0,14.9-1.58,53.92,53.92,0,0,0,12.75-3.29c.72-.57,1.15-.29,1.15,1.14v21.93a7.37,7.37,0,0,1-.29,1.72,3.4,3.4,0,0,1-1,1,61.28,61.28,0,0,1-14.33,4.3,97,97,0,0,1-20.35,1.72c-10.89,0-20.06-1.72-27.51-5a48.18,48.18,0,0,1-18.06-13.61,52.55,52.55,0,0,1-9.88-18.77,74.24,74.24,0,0,1,.57-43.7,58.33,58.33,0,0,1,10.75-19.64,52,52,0,0,1,17.34-13.61c6.73-3.29,14.75-4.44,23.93-4.44a51.88,51.88,0,0,1,22.21,4.44,39.52,39.52,0,0,1,15,11.46,52.41,52.41,0,0,1,8.6,16.34,56.45,56.45,0,0,1,2.72,17.48c0,3.44-.14,6.45-.28,9.17s-.43,4.73-.58,6a2.13,2.13,0,0,1-2,1.86c-.86,0-2.44.15-4.73.29a67.27,67.27,0,0,1-8.31.43c-3.3,0-6.74-.57-10.46-.57Zm-45.43-20.92h30.24c3.72,0,6.44,0,8.16-.15a7,7,0,0,0,3.3-1.14v-1.44a16.53,16.53,0,0,0-.86-5.3,19,19,0,0,0-18.63-13.18,20.18,20.18,0,0,0-19.06,10.89A29.68,29.68,0,0,0,1001.27,424.49Z"/></g></g><path class="cls-1" d="M845.78,256H1069.3a61.24,61.24,0,0,1,61.29,61.29V532.15a61.24,61.24,0,0,1-61.29,61.29H845.78a61.24,61.24,0,0,1-61.29-61.29V317.29A61.24,61.24,0,0,1,845.78,256Z"/><path class="cls-3" d="M945.77,458.89H892.13l-11,33.89a2.52,2.52,0,0,1-2.74,2H851.32c-1.59,0-2-.86-1.59-2.59l46.44-133.68c.43-1.44.86-3,1.44-4.76a51,51,0,0,0,.86-9.37,1.45,1.45,0,0,1,1.16-1.59H937c1.15,0,1.73.43,1.87,1.16l52.64,148.53c.43,1.58,0,2.3-1.45,2.3H959.9a2.16,2.16,0,0,1-2.3-1.58Zm-45.28-29.28h36.63c-.87-3-2-6.63-3.32-10.38s-2.59-8.07-3.89-12.4-2.74-8.8-4.18-13.27-2.74-8.65-3.9-12.83-2.16-7.79-3.17-11.25h-.29a174.82,174.82,0,0,1-4.9,18.6c-2.16,6.92-4.33,14.13-6.63,21.34C904.82,416.78,902.65,423.56,900.49,429.61ZM1023.64,368a17.84,17.84,0,0,1-12.83-5.05,18.68,18.68,0,0,1-4.9-13.27,17,17,0,0,1,5.19-12.83,18.44,18.44,0,0,1,12.83-5.05c5.63,0,10,1.73,13.12,5.05a19.83,19.83,0,0,1-.28,26.1,17,17,0,0,1-13.13,5.05Zm-16.15,125.17v-111c0-1.44.58-2,1.88-2h28.55c1.3,0,1.87.72,1.87,2v111c0,1.58-.57,2.3-1.87,2.3h-28.26A2,2,0,0,1,1007.49,493.21Z"/></svg>