<svg id="Calque_1" data-name="Calque 1" xmlns="http://www.w3.org/2000/svg" viewBox="0 0 1920 800"><defs><style>.cls-1{fill:#ea7600;}.cls-2{fill:#265787;stroke:#fff;stroke-miterlimit:10;stroke-width:14px;}.cls-3{fill:#fff;}</style></defs><rect id="rect4138" class="cls-1" width="1920" height="800"/><path class="cls-1" d="M887.1,421.86c1.45-25.84,14.09-48.67,33.23-64.81,18.73-15.86,43.89-25.57,71.51-25.57s52.64,9.7,71.38,25.57c19.14,16.14,31.72,39,33.22,64.81,1.45,26.53-9.23,51.28-27.89,69.6-19.14,18.59-46.22,30.35-76.71,30.35s-57.7-11.67-76.71-30.35c-18.73-18.32-29.39-42.94-27.89-69.46Z"/><path class="cls-2" d="M944.39,418.7a47,47,0,0,1,17.08-33.31,57.85,57.85,0,0,1,73.42,0A47.08,47.08,0,0,1,1052,418.7c.74,13.63-4.74,26.35-14.34,35.76a57.59,57.59,0,0,1-78.83,0c-9.63-9.41-15.11-22.06-14.34-35.69Z"/><path class="cls-3" d="M860.07,446.8c.09,5.2,1.75,15.32,4.24,23.19a122.17,122.17,0,0,0,26.42,45.74A137.13,137.13,0,0,0,937,549a150.86,150.86,0,0,0,121.42-.21,137.43,137.43,0,0,0,46.24-33.38A122.45,122.45,0,0,0,1131,469.5a114.93,114.93,0,0,0,4.14-51,117.81,117.81,0,0,0-16.86-46.1,127.06,127.06,0,0,0-30.78-33.87l0,0L963.2,242.94c-.11-.08-.2-.17-.32-.25-8.15-6.27-21.92-6.25-30.85,0s-10.12,16.87-2,23.47l0,0,51.93,42.23-158.1.17h-.21c-13.07,0-25.65,8.57-28.11,19.46s6.32,20.24,20,20.24l0,0,80.11-.15L752.17,457.83l-.55.41c-13.49,10.33-17.85,27.55-9.35,38.37,8.65,11,27,11.1,40.62.06l78-63.94a122.41,122.41,0,0,0-1,13.77Zm201,28.88c-16.09,16.37-38.64,25.72-63,25.72s-46.93-9.14-63-25.51A75.4,75.4,0,0,1,917.83,449a70.72,70.72,0,0,1,4.7-58.39,79.25,79.25,0,0,1,19.11-22.77,90.9,90.9,0,0,1,112.77-.14,78.8,78.8,0,0,1,19.12,22.7,70.71,70.71,0,0,1,4.68,58.39,74.93,74.93,0,0,1-17.22,27Z"/></svg>