<svg id="Calque_1" data-name="Calque 1" xmlns="http://www.w3.org/2000/svg" viewBox="0 0 1920 801"><defs><style>.cls-1{fill:#9b4f97;}.cls-2{fill:#803788;}.cls-3{fill:#67217a;}.cls-4{fill:#fff;}</style></defs><polygon class="cls-1" points="285.48 800 768 512 1166 279 1653 0 0 0 0 800 285.48 800"/><polygon class="cls-2" points="965.29 396.5 1614.32 800 1920 801 1920 1 1642 0 965.29 396.5"/><polyline class="cls-3" points="272 800 966 396 1615 800"/><path class="cls-4" d="M1003.92,436.51a74.49,74.49,0,1,1-.55-73.73l65-37.42a149.26,149.26,0,1,0,.55,148.7Zm82.18-71.79h-14.83v71.65h14.83Zm32.84,0h-14.83v71.65h14.83Z"/><path class="cls-4" d="M1131,376.78h-71.65v14.83H1131Zm0,32.7h-71.65v14.83H1131Z"/></svg>