<svg id="Calque_1" data-name="Calque 1" xmlns="http://www.w3.org/2000/svg" viewBox="0 0 1920 800"><defs><style>.cls-1{fill:#313c42;}.cls-2{fill:#fff;stroke:#fff;stroke-miterlimit:10;}</style></defs><rect class="cls-1" width="1920" height="800"/><path class="cls-2" d="M1101.48,514.11l-.27-.11a17.81,17.81,0,0,1-10.79-16.51V483.16c0-2.11.16-4.19.27-6.29a11.48,11.48,0,0,0-5.81-10.72c1.85-70.09-27.67-121.74-49.8-140.18s-29.51-48-29.51-48l-3.69-62.71s-3.69-77.47-76.55-80.24-69.17,85.77-69.17,85.77v18a181.56,181.56,0,0,1-15.47,74c-6.48,14.52-12.19,22.32-12.19,22.32-20.29,27.67-44.27,121.74-44.27,121.74-14.76,9.22-12.91,22.13-12.91,22.13,1.84,11.07-15.16,12.91-21.18,13a35.69,35.69,0,0,0-11.69,2c-14.35,5.09-14.06,16.07-13.5,19.81.29,2,.61,4,.85,6,3.13,26.19,1.64,39.89.44,45.85A14.36,14.36,0,0,0,730,578.61c13.51,13.83,50.93,16.18,63.21,16.58a18.72,18.72,0,0,1,7.55,1.83c21,10.14,36.89,14.46,46.15,16.28a22.86,22.86,0,0,0,15.68-2.52C892.8,593.66,917,595.27,917,595.27h70.09c0,9.88,8.1,14.73,15.64,17.11a46.4,46.4,0,0,0,20.46,1.44c23.83-3.37,33.66-13.8,37.41-19.75a50.85,50.85,0,0,1,11.29-13,64,64,0,0,1,20.71-11.21c1.47-.44,2.95-.91,4.41-1.39,24.47-8.13,21.25-7,26.58-23C1129.15,528.86,1101.48,514.11,1101.48,514.11ZM927.71,205c5.78-12.78,22.84-14.22,31.17-2.95,3.44,4.67,6,11.55,6,21.69,0,29.51-16.6,29.51-16.6,29.51A27.07,27.07,0,0,0,953.85,237c0-9.63-3.69-13.32-9.22-13.32s-11.07,7.43-10.15,14.78a53.79,53.79,0,0,0,4.59,14.72c-.42,0-14.42-2.27-14.57-30.42C924.45,215,925.78,209.25,927.71,205ZM953,271.56s-8.06,11-30.08,19.16a39.7,39.7,0,0,1-37.32-5.05,41.77,41.77,0,0,1-10.07-10.42S894,255,914.27,255,953,271.56,953,271.56Zm-84.24-65.78c5.76-12.78,22.84-14.22,31.16-2.93,3.43,4.65,6.05,11.53,6.05,21.67C906,254,889.37,254,889.37,254a27,27,0,0,0,5.53-16.17c0-9.65-3.69-13.34-9.22-13.34s-11.07,7.43-10.15,14.79A53.8,53.8,0,0,0,880.12,254c-.42,0-14.44-2.27-14.59-30.42C865.5,215.87,866.81,210.1,868.76,205.78ZM853.4,593.57c-13.89.11-32.95-7.91-44.42-13.45a54.14,54.14,0,0,0-21.69-5.33c-25-.79-35.16-4.15-39.19-6.42a3.88,3.88,0,0,1-1.7-4.65c5.31-15.91,2.84-33.55.81-42.92a5.59,5.59,0,0,1,5.24-6.73c31.41-1.64,38.75-23.48,40.49-33.61a3,3,0,0,1,5.31-1.45c5.81,6.78,13,21.52,17.69,32.15A71.47,71.47,0,0,0,831.12,533c20.4,20,24.23,26.45,24.92,28.33.42,1.16.77,2.36,1.21,3.52C870,598.68,853.4,593.57,853.4,593.57Zm134.7-66a9.18,9.18,0,0,1-3.69,7.12c-9.79,7.29-40.61,24.64-107.07,19.22a3.38,3.38,0,0,1-2.66-1.66c-2.43-4.28-10-16.56-20.45-24.57a83.79,83.79,0,0,1-15.92-15.44c-1.38-1.82-2.8-3.85-4.22-6.06a69.91,69.91,0,0,1-8.32-19.3c-1.5-5.48-5.54-14.79-16.46-25.3a5,5,0,0,1-1.43-4.71c3-14,17.37-76.73,41.83-120.76,0,0,7.08-8.85,19.5-38.68a1.41,1.41,0,0,1,2.26-.51C876.14,301.22,891.23,314,905,314c14.91,0,49.1-17.82,56-21.49a1.45,1.45,0,0,1,1.91.55c4.5,7.95,29.64,54.14,38,109.48,6,39.47,6.53,56.46,6.18,63.5a11.94,11.94,0,0,1-2.73,7C999.78,478.67,989,495.24,988.1,527.57Zm106.39,19.61c-25.06,8.52-46.26,28.66-54.63,37.42a37.5,37.5,0,0,1-14.15,9.48c-9.89,3.6-15.4.63-18.28-2.49a10.28,10.28,0,0,1-2.51-7.82l6.55-73.63a3.25,3.25,0,0,1,5.2-2.3c19.74,14.44,40.32,6.18,49.47,1.07a3.24,3.24,0,0,1,4.83,2.56c1.17,16.45,14.37,25.36,23.78,29.66A3.25,3.25,0,0,1,1094.49,547.18Z"/></svg>