<svg id="Calque_1" data-name="Calque 1" xmlns="http://www.w3.org/2000/svg" xmlns:xlink="http://www.w3.org/1999/xlink" viewBox="0 0 1921 800"><defs><style>.cls-1{fill:url(#Dégradé_sans_nom_37);}.cls-2,.cls-3{fill:#fff;}.cls-2{stroke:#fff;stroke-miterlimit:10;}.cls-4{fill:#e44e26;}</style><linearGradient id="Dégradé_sans_nom_37" y1="400" x2="1921" y2="400" gradientUnits="userSpaceOnUse"><stop offset="0.5" stop-color="#e44e26"/><stop offset="0.5" stop-color="#b56255"/><stop offset="0.5" stop-color="#7f7a8c"/><stop offset="0.5" stop-color="#588bb4"/><stop offset="0.5" stop-color="#4095cc"/><stop offset="0.5" stop-color="#3799d5"/></linearGradient></defs><rect class="cls-1" width="1921" height="800"/><path class="cls-2" d="M1317.33,248.42,1342.15,540l117.51,31.23L1576.37,540,1602,248.42ZM1543.8,343l-86.87,36.15h84.93l-8.92,108.11-73.28,21.36-72.53-21.36-3.1-52.74,34.12-1.55,1.55,29.47,40,11.22,40.71-12.77,1.55-48.08H1379.37l-1.55-34.13L1464.69,343h-90L1367,307.37H1546.9Z" transform="translate(0.08)"/><polygon class="cls-3" points="343.82 542.23 460.4 573.44 576.18 542.23 601.61 250.66 319.2 250.66 343.82 542.23"/><polyline class="cls-4" points="368.3 308.74 551.32 308.74 548.59 345.23 408.67 345.23 412.03 380.22 545.25 380.22 534.78 491.17 459.81 511.25 385.18 491.91 379.81 435.32 415.87 435.32 418.94 463.62 460.4 473.69 501.79 462.13 504.86 417.45 378.28 417.45 368.3 309.62"/></svg>