<svg id="Calque_1" data-name="Calque 1" xmlns="http://www.w3.org/2000/svg" viewBox="0 0 1920 800"><defs><style>.cls-1{fill:#001e36;}.cls-2{fill:#00005b;}.cls-3{fill:#99f;}.cls-4{fill:#31a8ff;}</style></defs><rect id="rect4138" class="cls-1" width="1920" height="800"/><g id="vlpb"><g id="vlpc"><g id="vlpd"><path class="cls-2" d="M839.64,257.69h222.1a60.85,60.85,0,0,1,60.9,60.9V532.1a60.85,60.85,0,0,1-60.9,60.9H839.64a60.85,60.85,0,0,1-60.9-60.9V318.59A60.85,60.85,0,0,1,839.64,257.69Z"/></g></g></g><g id="vlpe"><g id="vlpf"><path class="cls-3" d="M916.87,458.3h-53.3l-10.89,33.82a2.52,2.52,0,0,1-2.73,2H823c-1.57,0-2-.86-1.57-2.58l46.14-132.26c.43-1.44.86-2.72,1.43-4.44a50.41,50.41,0,0,0,.86-9.32A1.41,1.41,0,0,1,871,344h37.11c1,0,1.72.43,1.86,1.14L962.3,491.26c.43,1.58,0,2.29-1.44,2.29h-30a2.16,2.16,0,0,1-2.29-1.57l-11.75-34.39Zm-45-28.51h36.39c-.86-3-2-6.59-3.29-10.32s-2.58-8-3.87-12.32S898.39,398.41,897,394s-2.72-8.59-3.87-12.75c-1.14-4-2.14-7.74-3.15-11.18h-.28a174.58,174.58,0,0,1-4.88,18.49c-2.15,6.88-4.3,14-6.59,21.21C876.32,417,874,423.77,871.88,429.79Z"/><path class="cls-3" d="M1046.7,445.41h-45.43a31.62,31.62,0,0,0,4.44,12.75,22.77,22.77,0,0,0,10.46,8.6,44.77,44.77,0,0,0,18.35,3.58,85.21,85.21,0,0,0,14.9-1.58,53.92,53.92,0,0,0,12.75-3.29c.72-.57,1.15-.29,1.15,1.14v21.93a7.37,7.37,0,0,1-.29,1.72,3.4,3.4,0,0,1-1,1,61.28,61.28,0,0,1-14.33,4.3,97,97,0,0,1-20.35,1.72c-10.89,0-20.06-1.72-27.51-5a48.18,48.18,0,0,1-18.06-13.61,52.55,52.55,0,0,1-9.88-18.77,74.24,74.24,0,0,1,.57-43.7,58.33,58.33,0,0,1,10.75-19.64,52,52,0,0,1,17.34-13.61c6.73-3.29,14.75-4.44,23.93-4.44a51.88,51.88,0,0,1,22.21,4.44,39.52,39.52,0,0,1,15,11.46,52.41,52.41,0,0,1,8.6,16.34,56.45,56.45,0,0,1,2.72,17.48c0,3.44-.14,6.45-.28,9.17s-.43,4.73-.58,6a2.13,2.13,0,0,1-2,1.86c-.86,0-2.44.15-4.73.29a67.27,67.27,0,0,1-8.31.43c-3.3,0-6.74-.57-10.46-.57Zm-45.43-20.92h30.24c3.72,0,6.44,0,8.16-.15a7,7,0,0,0,3.3-1.14v-1.44a16.53,16.53,0,0,0-.86-5.3,19,19,0,0,0-18.63-13.18,20.18,20.18,0,0,0-19.06,10.89A29.68,29.68,0,0,0,1001.27,424.49Z"/></g></g><g id="Layer_2" data-name="Layer 2"><g id="Surfaces"><g id="Photo_Surface" data-name="Photo Surface"><g id="Outline_no_shadow" data-name="Outline no shadow"><path class="cls-1" d="M839.12,257h223.22a61.15,61.15,0,0,1,61.21,61.21V532.79A61.15,61.15,0,0,1,1062.34,594H839.12a61.15,61.15,0,0,1-61.21-61.21V318.21A61.15,61.15,0,0,1,839.12,257Z"/></g></g></g><g id="Outlined_Mnemonics_Logos" data-name="Outlined Mnemonics Logos"><g id="Ps"><path class="cls-4" d="M855.68,493.33V345.14c0-1,.43-1.59,1.44-1.59,2.45,0,4.75,0,8.06-.14,3.46-.14,7.06-.14,11-.29s8.06-.14,12.53-.29,8.78-.14,13.1-.14c11.81,0,21.61,1.44,29.67,4.46A51.55,51.55,0,0,1,950.73,359a45.81,45.81,0,0,1,10.51,16.42,55.12,55.12,0,0,1,3.31,18.72q0,18.58-8.64,30.68a49.38,49.38,0,0,1-23.18,17.57c-9.8,3.6-20.6,4.9-32.41,4.9-3.45,0-5.76,0-7.2-.15s-3.45-.14-6.19-.14v46.23a1.79,1.79,0,0,1-1.58,2H857.41C856.25,495.2,855.68,494.63,855.68,493.33Zm31.39-122v48.39c2,.14,3.89.29,5.62.29h7.63a54.08,54.08,0,0,0,16.57-2.59,24.79,24.79,0,0,0,11.8-7.64c3-3.6,4.47-8.49,4.47-14.83a23.77,23.77,0,0,0-3.31-12.82,21,21,0,0,0-10.08-8.21,42.35,42.35,0,0,0-17-2.88c-3.74,0-7.06,0-9.79.15a33,33,0,0,0-5.91.14Z"/><path class="cls-4" d="M1054.42,411a51.2,51.2,0,0,0-13.82-4.89,76.09,76.09,0,0,0-16.13-1.87,28.87,28.87,0,0,0-8.65,1,7.43,7.43,0,0,0-4.46,2.88,7.68,7.68,0,0,0-1.15,3.89,6.39,6.39,0,0,0,1.44,3.75,16.19,16.19,0,0,0,4.9,3.89c3.31,1.72,6.76,3.31,10.22,4.75A104.09,104.09,0,0,1,1049,434.86a33.66,33.66,0,0,1,11.38,11.95,31.2,31.2,0,0,1,3.31,14.84A33.47,33.47,0,0,1,1058,480.8a36.08,36.08,0,0,1-16.13,12.82c-7.05,3-15.7,4.61-26.07,4.61a99.64,99.64,0,0,1-19.58-1.87,58.37,58.37,0,0,1-14.69-4.61A2.85,2.85,0,0,1,980,489V464a1.55,1.55,0,0,1,.58-1.29,1.1,1.1,0,0,1,1.3.14,61.67,61.67,0,0,0,17.85,7.06,67.15,67.15,0,0,0,17,2.16c5.47,0,9.36-.72,12-2a6.69,6.69,0,0,0,3.89-6.05c0-2-1.15-3.89-3.46-5.76s-7-4-14.11-6.77a88.21,88.21,0,0,1-20.45-10.37,37.13,37.13,0,0,1-10.94-12.24,30.9,30.9,0,0,1-3.32-14.69,33.85,33.85,0,0,1,4.9-17.42,35.51,35.51,0,0,1,15.12-13.25c6.77-3.46,15.27-5,25.49-5a124.66,124.66,0,0,1,17.86,1.29A50.66,50.66,0,0,1,1056,383a2.55,2.55,0,0,1,1.44,1.29,7.43,7.43,0,0,1,.28,1.73v23.47A1.73,1.73,0,0,1,1057,411,3.81,3.81,0,0,1,1054.42,411Z"/></g></g></g></svg>