<svg id="Calque_1" data-name="Calque 1" xmlns="http://www.w3.org/2000/svg" viewBox="0 0 1920 800"><defs><style>.cls-1{fill:#6082bb;}.cls-2{fill:#fff;}</style></defs><rect id="rect4138" class="cls-1" width="1920" height="800"/><path id="path3486" class="cls-2" d="M758.27,441.36c17.84,0,31.16-3.35,39.59-9.93S812,413.61,815,397.85c2.82-14.73,1.75-25-3.18-30.56s-15.93-8.54-32.37-8.54H750.9l-15.8,82.61ZM665,543.11a4.4,4.4,0,0,1-3.42-1.64,4.56,4.56,0,0,1-.93-3.72l41.89-218.92a4.45,4.45,0,0,1,4.35-3.64h90.28c28.38,0,49.5,7.82,62.77,23.26s17.47,37.21,12.25,64.47a104.11,104.11,0,0,1-10.86,30.65,102,102,0,0,1-20,25.43,87.34,87.34,0,0,1-32.88,20c-11.83,3.92-27,5.9-45.17,5.9H726.77l-10.44,54.56a4.46,4.46,0,0,1-4.36,3.64Z"/><path id="path3494" class="cls-2" d="M983.53,484.91a4.32,4.32,0,0,1-3.38-1.64,4.6,4.6,0,0,1-.92-3.72l18.29-96.86c1.74-9.21,1.31-15.83-1.2-18.62-1.55-1.71-6.18-4.57-19.87-4.57H943.31l-23,121.77a4.42,4.42,0,0,1-4.3,3.64H870a4.32,4.32,0,0,1-3.38-1.64,4.6,4.6,0,0,1-.92-3.72l41.35-218.92a4.41,4.41,0,0,1,4.3-3.64h46a4.32,4.32,0,0,1,3.38,1.64,4.6,4.6,0,0,1,.92,3.72l-10,52.84h35.65c27.16,0,45.57,4.93,56.3,15.06,10.93,10.34,14.34,26.87,10.14,49.14l-19.24,101.88a4.41,4.41,0,0,1-4.3,3.64Z"/><path id="path3502" class="cls-2" d="M1138.42,441.36c18.53,0,32.36-3.35,41.11-9.93s14.63-17.82,17.77-33.58c2.92-14.73,1.81-25-3.31-30.56s-16.54-8.54-33.62-8.54h-29.6l-16.41,82.61ZM1041.6,543.11a4.65,4.65,0,0,1-3.56-1.64,4.44,4.44,0,0,1-1-3.72l43.5-218.92a4.59,4.59,0,0,1,4.52-3.64h93.74c29.47,0,51.39,7.82,65.18,23.26s18.13,37.21,12.72,64.47a101.45,101.45,0,0,1-11.28,30.65A102.85,102.85,0,0,1,1224.71,459a91.51,91.51,0,0,1-34.14,20c-12.29,3.92-28.07,5.9-46.91,5.9h-38l-10.83,54.56a4.59,4.59,0,0,1-4.53,3.64Z"/></svg>