<svg id="Calque_1" data-name="Calque 1" xmlns="http://www.w3.org/2000/svg" viewBox="0 0 1920 800"><defs><style>.cls-1{fill:#eabd2d;}.cls-2{fill:#fff;}</style></defs><rect class="cls-1" width="1920" height="800"/><path id="path1948" class="cls-2" d="M935.89,164a314.8,314.8,0,0,0-52.65,4.5c-46.63,8.24-55.09,25.48-55.09,57.27v42H938.33v14H786.8c-32,0-60.06,19.25-68.83,55.86-10.12,42-10.57,68.15,0,112,7.83,32.62,26.53,55.86,58.56,55.86h37.88V455.12c0-36.37,31.46-68.45,68.83-68.45h110c30.63,0,55.09-25.22,55.09-56V225.77c0-29.86-25.19-52.29-55.09-57.27A344.59,344.59,0,0,0,935.89,164ZM876.3,197.78a21,21,0,1,1-20.67,21.06A20.91,20.91,0,0,1,876.3,197.78Z"/><path id="path1950" class="cls-2" d="M1067.12,291.76v48.92c0,37.94-32.16,69.86-68.83,69.86h-110c-30.15,0-55.09,25.8-55.09,56V571.44c0,29.86,26,47.42,55.09,56,34.87,10.26,68.32,12.11,110,0,27.74-8,55.09-24.19,55.09-56v-42H943.33v-14h165.14c32,0,44-22.33,55.09-55.86,11.5-34.51,11-67.7,0-112-7.92-31.88-23-55.86-55.09-55.86Zm-61.9,265.69a21,21,0,1,1-20.67,20.93A20.79,20.79,0,0,1,1005.22,557.45Z"/></svg>