<svg id="Calque_1" data-name="Calque 1" xmlns="http://www.w3.org/2000/svg" viewBox="0 0 1920 800"><defs><style>.cls-1{fill:#3460a6;}.cls-2,.cls-3{fill:#fff;}.cls-3{fill-rule:evenodd;}</style></defs><rect id="rect4138" class="cls-1" width="1920" height="800"/><path class="cls-2" d="M594.53,554.87h24.08v-95.1l37.29,82.91c4.4,10,10.42,13.58,22.23,13.58s17.6-3.55,22-13.58l37.29-82.91v95.1H761.5V459.92c0-9.26-3.7-13.74-11.35-16.05-18.29-5.72-30.57-.78-36.12,11.58l-36.59,81.82L642,455.45c-5.32-12.36-17.83-17.3-36.12-11.58-7.65,2.31-11.35,6.79-11.35,16.05Z"/><path class="cls-2" d="M781.53,477.46H805.6v52.4c-.22,2.85.92,9.53,14.11,9.73,6.73.11,51.95,0,52.37,0V477.21h24.14c.11,0,0,85.08,0,85.44.13,21-26,25.54-38.1,25.89H782.05v-16.2c.13,0,76,0,76.18,0,15.5-1.63,13.67-9.34,13.67-11.93v-6.32H820.71c-23.81-.22-39-10.61-39.17-22.57C781.52,530.4,782.05,478,781.53,477.46Z"/><path class="cls-2" d="M914.78,554.87H984a53.37,53.37,0,0,0,22.24-4.63c10.42-4.78,15.51-11.27,15.51-19.76v-17.6c0-6.95-5.79-13.43-17.14-17.75A59.14,59.14,0,0,0,984,491.57H954.84c-9.72,0-14.36-2.93-15.51-9.41a6.73,6.73,0,0,1-.24-2.17V469a6.15,6.15,0,0,1,.24-2c1.15-4.94,3.7-6.34,12.27-7.11.7,0,1.62-.15,2.32-.15h68.78V443.71H955.07c-9.72,0-14.82.62-19.45,2C921.26,450.2,915,457.3,915,469.65V483.7c0,10.81,12.28,20.07,32.88,22.23,2.32.16,4.64.31,7,.31h25a12.43,12.43,0,0,1,2.55.16c7.64.61,10.88,2,13.2,4.78a5.74,5.74,0,0,1,1.85,4.32v14c0,1.7-1.15,3.86-3.47,5.72-2.08,1.85-5.56,3.08-10.19,3.39-.93,0-1.62.16-2.55.16H914.78Z"/><path class="cls-2" d="M1172,526.93c0,16.52,12.27,25.78,37,27.64,2.32.15,4.63.3,7,.3h62.76v-16h-63.22c-14.13,0-19.46-3.55-19.46-12V443.71H1172Z"/><path class="cls-2" d="M1037.14,527.77V470.53c0-14.54,10.21-23.36,30.4-26.15a45.83,45.83,0,0,1,6.5-.46h45.72a49.1,49.1,0,0,1,6.73.46c20.19,2.79,30.4,11.61,30.4,26.15v57.24c0,11.8-4.34,18.11-14.33,22.23l23.72,21.41h-28l-19.2-17.32-19.32,1.22H1074a53.48,53.48,0,0,1-14.16-2C1044.57,549.12,1037.14,541.08,1037.14,527.77Zm26-1.39a10.77,10.77,0,0,0,.46,2.48c1.39,6.65,7.66,10.36,17.17,10.36h21.88l-20.1-18.14h28l17.53,15.82a11.39,11.39,0,0,0,6.1-7.73,8,8,0,0,0,.23-2.32V471.92a7.5,7.5,0,0,0-.23-2.17c-1.39-6.18-7.66-9.74-16.94-9.74h-36.44c-10.67,0-17.63,4.64-17.63,11.91Z"/><path class="cls-2" d="M1300,417.08c-14.81-.4-26.12,1-35.78,5.05-2.75,1.16-7.13,1.19-7.58,4.63,1.51,1.58,1.74,3.95,2.94,5.89,2.31,3.74,6.21,8.75,9.69,11.37,3.8,2.87,7.71,5.94,11.79,8.42,7.24,4.42,15.33,6.94,22.31,11.37,4.11,2.61,8.19,5.89,12.2,8.84,2,1.45,3.32,3.72,5.9,4.63v-.42c-1.36-1.73-1.71-4.1-3-5.9l-5.47-5.47A89.83,89.83,0,0,0,1293.65,447c-5.75-4.14-18.64-9.72-21-16.42l-.43-.42c4.09-.46,8.87-1.94,12.63-2.95,6.33-1.7,12-1.26,18.53-2.94l8.84-2.53V420c-3.31-3.4-5.66-7.88-9.27-10.95a268.71,268.71,0,0,0-30.3-22.73c-5.88-3.71-13.14-6.12-19.37-9.27-2.09-1.05-5.77-1.6-7.16-3.36-3.27-4.17-5-9.46-7.57-14.32-5.29-10.17-10.48-21.29-15.16-32-3.19-7.3-5.28-14.5-9.26-21.05-19.11-31.43-39.69-50.4-71.56-69-6.79-4-15-5.53-23.58-7.58l-13.89-.84c-2.83-1.18-5.77-4.64-8.42-6.32-10.56-6.67-37.64-21.18-45.46-2.1-4.94,12,7.38,23.79,11.78,29.89,3.09,4.28,7,9.08,9.26,13.89,1.46,3.16,1.71,6.34,3,9.68,3.06,8.25,5.72,17.22,9.68,24.84a87.7,87.7,0,0,0,6.74,11.37c1.55,2.11,4.21,3.05,4.63,6.31-2.6,3.64-2.75,9.29-4.21,13.9-6.58,20.74-4.1,46.53,5.47,61.88,2.94,4.71,9.86,14.82,19.37,10.95,8.32-3.39,6.46-13.89,8.84-23.16.54-2.1.21-3.64,1.26-5v.42l7.58,15.15c5.61,9,15.56,18.48,24,24.84,4.38,3.31,7.82,9,13.47,10.95v-.42h-.42c-1.09-1.71-2.81-2.42-4.21-3.79a97.56,97.56,0,0,1-9.68-10.95,256.65,256.65,0,0,1-20.63-33.67c-3-5.67-5.51-11.92-8-17.69-1-2.22-.94-5.58-2.94-6.73-2.72,4.22-6.74,7.64-8.84,12.63-3.37,8-3.81,17.7-5,27.78-.74.27-.41.08-.85.42-5.86-1.41-7.92-7.45-10.1-12.63-5.51-13.09-6.53-34.18-1.68-49.25,1.25-3.9,6.92-16.18,4.63-19.79-1.1-3.59-4.71-5.67-6.74-8.42a66,66,0,0,1-6.73-11.78c-4.52-10.22-6.62-21.68-11.37-32-2.27-4.93-6.11-9.92-9.26-14.31-3.49-4.86-7.4-8.44-10.1-14.32-1-2.08-2.27-5.43-.85-7.57a3.35,3.35,0,0,1,2.53-2.53c2.44-1.88,9.24.63,11.79,1.68a103,103,0,0,1,18.1,9.27c2.74,1.82,5.52,5.34,8.84,6.31h3.79c5.92,1.36,12.56.42,18.1,2.11a109.48,109.48,0,0,1,26.52,12.63,164.22,164.22,0,0,1,57.67,63.14c2.19,4.19,3.13,8.19,5,12.63,3.88,9,8.77,18.18,12.63,26.94s7.61,17.57,13,24.84c2.87,3.83,13.92,5.88,19,8,3.52,1.49,9.29,3,12.63,5.05,6.37,3.85,12.54,8.42,18.52,12.63C1290.33,408.66,1299.51,413.27,1300,417.08Z"/><path class="cls-3" d="M1111.8,256.68a30.11,30.11,0,0,0-7.58.85V258h.42c1.47,3,4.07,5,5.89,7.58l4.21,8.83.42-.42c2.61-1.83,3.8-4.77,3.79-9.26-1-1.1-1.2-2.48-2.1-3.79C1115.64,259.15,1113.31,258.15,1111.8,256.68Z"/><path class="cls-3" d="M1290.08,538.36a17.75,17.75,0,1,0,17.75-17.75A17.52,17.52,0,0,0,1290.08,538.36Zm31.53,0a13.78,13.78,0,1,1-13.78-14.06A13.73,13.73,0,0,1,1321.61,538.36Zm-9,10.13h4l-5.82-8.9c3.12-.33,5.49-1.84,5.49-5.54,0-4.11-2.6-5.82-7.62-5.82h-7.9v20.26h3.4v-8.76h3.17Zm-8.48-11.6v-5.82h3.93c2,0,4.5.38,4.5,2.75,0,2.84-2.23,3.07-4.78,3.07Z"/></svg>