<svg id="Calque_1" data-name="Calque 1" xmlns="http://www.w3.org/2000/svg" viewBox="0 0 489 489"><defs><style>.cls-1{fill:#db6b49;}.cls-2{fill:none;stroke:#db6b49;stroke-miterlimit:10;stroke-width:21px;}</style></defs><path class="cls-1" d="M256.5,33a223.56,223.56,0,0,1,87,429.44,223.56,223.56,0,0,1-174-411.88A222.07,222.07,0,0,1,256.5,33m0-21C121.47,12,12,121.47,12,256.5S121.47,501,256.5,501,501,391.53,501,256.5,391.53,12,256.5,12Z" transform="translate(-12 -12)"/><path class="cls-2" d="M165.72,174.6a13.38,13.38,0,0,0-4.22,9.75V337.71a13.29,13.29,0,0,0,3.25,8.74c7.92,9.09,32.1,29.14,91.25,29.14,59.6,0,82.48-21,89.68-30.27a13.43,13.43,0,0,0,2.82-8.22v-153a13.4,13.4,0,0,0-4-9.5c-9.5-9.43-36.72-30.79-88.54-30.79S175.77,165.16,165.72,174.6Z" transform="translate(-12 -12)"/><path class="cls-2" d="M161.5,197.94S180,222.5,256,222.5s92.5-24.56,92.5-24.56" transform="translate(-12 -12)"/><path class="cls-2" d="M162.6,251.75s18.5,24.56,94.5,24.56c77.79,0,90.71-21.9,92.5-24.56" transform="translate(-12 -12)"/><path class="cls-2" d="M162.6,301.75s18.5,24.56,94.5,24.56,92.5-24.56,92.5-24.56" transform="translate(-12 -12)"/></svg>