<svg id="Calque_1" data-name="Calque 1" xmlns="http://www.w3.org/2000/svg" viewBox="0 0 489 489"><defs><style>.cls-1{fill:#db6b49;}.cls-2{fill:none;stroke:#db6b49;stroke-linecap:round;stroke-linejoin:round;stroke-width:14px;}</style></defs><path class="cls-1" d="M256.5,33a223.56,223.56,0,0,1,87,429.44,223.56,223.56,0,0,1-174-411.88A222.07,222.07,0,0,1,256.5,33m0-21C121.47,12,12,121.47,12,256.5S121.47,501,256.5,501,501,391.53,501,256.5,391.53,12,256.5,12Z" transform="translate(-12 -12)"/><polyline class="cls-2" points="271 323 295.5 323 295.5 354 223 354"/><polyline class="cls-2" points="204 354 191.63 354 191.63 323 250 323"/><polyline class="cls-2" points="283.88 323 312 276 244.5 162.94 244.5 249.56"/><line class="cls-2" x1="209" y1="217" x2="244" y2="162"/><line class="cls-2" x1="204.19" y1="323" x2="175" y2="275"/><line class="cls-2" x1="200" y1="233" x2="175" y2="274.13"/><rect class="cls-2" x="351" y="266" width="24" height="22.75"/><path class="cls-2" d="M375,278c-3-104-100-118-100-118h82.75" transform="translate(-12 -12)"/><rect class="cls-2" x="112.13" y="266" width="23.88" height="24.25"/><path class="cls-2" d="M136.06,278C136.06,179,238,160,238,160H152.25" transform="translate(-12 -12)"/><circle class="cls-2" cx="124" cy="148" r="12"/><circle class="cls-2" cx="363" cy="148" r="12"/><rect class="cls-2" x="232" y="133.5" width="23" height="24.5"/><circle class="cls-2" cx="244" cy="265" r="12"/></svg>