<svg id="Calque_1" data-name="Calque 1" xmlns="http://www.w3.org/2000/svg" viewBox="0 0 1163.49 241.67"><defs><style>.cls-1{fill:#1a1a1a;}.cls-2{fill:#f15a24;}</style></defs><path class="cls-1" d="M320.35,359.06V303.47a6.88,6.88,0,0,0-6.88-6.88h-1.82a20.08,20.08,0,0,0-20.08,20.09v82.37S288,437,250.8,437H216.65a34.84,34.84,0,0,1-34.84-34.84v-43s3-32.53,39-32.53v70.75h9.75a18.79,18.79,0,0,0,18.79-18.79l0-81.9s5.08-38.41,41.05-38.41h41.86A24.17,24.17,0,0,1,356.4,282.5v44S352.72,359.06,320.35,359.06Z" transform="translate(-115.51 -258.33)"/><path class="cls-2" d="M243.52,259.21a.44.44,0,0,0-.33-.73l-41.65-.09c-82.88,0-86,89-86,89V475a25,25,0,0,0,25,25H277.61c55.45,0,78.73-30.56,78.73-68.25l.06-71.58c-13.68,21.28-35,21.28-35,21.28v41.44c0,28.72-14,40.36-52,40.36h-102A18.29,18.29,0,0,1,149.16,445V350.34s-2.46-57.12,56.29-56.61h25.48a.44.44,0,0,0,.44-.55C230.71,290.43,228.71,277.4,243.52,259.21Z" transform="translate(-115.51 -258.33)"/><path class="cls-1" d="M460.73,421.53A45,45,0,0,1,450.26,418a44.34,44.34,0,0,1-9.1-6h0a9,9,0,0,1,11.59-2.23,36.92,36.92,0,0,0,5.6,2.59,41.39,41.39,0,0,0,14.26,2.39q11.14,0,17.27-4.42A14.43,14.43,0,0,0,496,397.9v-.06a11.48,11.48,0,0,0-2.65-7.93,16.32,16.32,0,0,0-6.86-4.48,75.29,75.29,0,0,0-10.83-2.74,2.23,2.23,0,0,0-.39-.09l-.45-.09-1.73-.36a108.12,108.12,0,0,1-14.61-3.61,21,21,0,0,1-9.34-6.38q-3.86-4.5-3.85-12.5v-.06a25.14,25.14,0,0,1,3.61-13.75,22.71,22.71,0,0,1,10.53-8.68,41.89,41.89,0,0,1,16.65-3,41,41,0,0,1,9.09,1,45.68,45.68,0,0,1,8.89,3,53.24,53.24,0,0,1,8.68,5h0A9.4,9.4,0,0,1,491,346a39.37,39.37,0,0,0-4.29-1.85,31.19,31.19,0,0,0-10.62-1.94q-10.62,0-16.47,4.47t-5.85,12.59v.06a10.27,10.27,0,0,0,2.93,7.73,17.93,17.93,0,0,0,7.24,4.2,115.78,115.78,0,0,0,11.85,2.87l.5.12.57.12a7,7,0,0,1,.69.15,4.81,4.81,0,0,0,.68.14,83.48,83.48,0,0,1,13.61,3.82,21.33,21.33,0,0,1,9,6.71q3.61,4.57,3.61,12.32v.12a24,24,0,0,1-3.75,13.58,23.46,23.46,0,0,1-10.89,8.59,44.93,44.93,0,0,1-17.21,3A57.38,57.38,0,0,1,460.73,421.53Z" transform="translate(-115.51 -258.33)"/><path class="cls-1" d="M526.66,335.08h0a4.29,4.29,0,0,1,4.29,4.3h0a4.29,4.29,0,0,1-4.29,4.29h0a4.3,4.3,0,0,1-4.3-4.29h0A4.3,4.3,0,0,1,526.66,335.08Zm0,24.82h0a4.29,4.29,0,0,1,4.29,4.29v53.34a4.3,4.3,0,0,1-4.29,4.3h0a4.31,4.31,0,0,1-4.3-4.3V364.19A4.3,4.3,0,0,1,526.66,359.9Z" transform="translate(-115.51 -258.33)"/><path class="cls-1" d="M559.83,359.9h0v61.93h0a8.59,8.59,0,0,1-8.59-8.6V368.49A8.58,8.58,0,0,1,559.83,359.9ZM590,384.3q0-8.24-3.91-12.77T575,367q-7.22,0-11.18,4.08t-4,11.55l-1.25-11.93a19.87,19.87,0,0,1,8.11-8.95A24,24,0,0,1,578.38,359a19.7,19.7,0,0,1,11,3,18.28,18.28,0,0,1,6.92,8.62,35.55,35.55,0,0,1,2.36,13.66v29.94a7.65,7.65,0,0,1-7.65,7.65H590Zm38.78,0q0-8.24-3.94-12.77T613.76,367q-7.21,0-11.18,4.41t-4,12.41L595,374.87a26.53,26.53,0,0,1,8.29-11.78A20.35,20.35,0,0,1,616,359a21.6,21.6,0,0,1,11.54,3,18.64,18.64,0,0,1,7.31,8.62,33.66,33.66,0,0,1,2.51,13.66v37.59h0a8.59,8.59,0,0,1-8.59-8.6Z" transform="translate(-115.51 -258.33)"/><path class="cls-1" d="M665.84,419.56a20.92,20.92,0,0,1-8.74-9.22,32.59,32.59,0,0,1-3-14.59V385.67a31.91,31.91,0,0,1,3-14.41,20.78,20.78,0,0,1,8.74-9.12,31.83,31.83,0,0,1,27.57,0,20.73,20.73,0,0,1,8.74,9.12,31.77,31.77,0,0,1,3,14.41v10.26a31.92,31.92,0,0,1-3,14.47,20.93,20.93,0,0,1-8.74,9.16,31.65,31.65,0,0,1-27.57,0Zm26.28-9.76q4.46-4.92,4.45-13.87V385.67q0-8.88-4.45-13.78T679.57,367q-8.05,0-12.47,4.89t-4.42,13.78v10.26q0,9,4.42,13.87t12.47,4.93Q687.69,414.73,692.12,409.8Z" transform="translate(-115.51 -258.33)"/><path class="cls-1" d="M722.46,359.9h0a8.58,8.58,0,0,1,8.59,8.59v53.34h0a8.6,8.6,0,0,1-8.59-8.6Zm41.17,24.4q0-8.24-4.33-12.77T747.1,367q-7.64,0-11.84,4t-4.21,11.42l-1.25-11.93a20.12,20.12,0,0,1,8.71-8.8A27.81,27.81,0,0,1,751.1,359q10.08,0,15.6,6.6t5.52,18.64v29a8.6,8.6,0,0,1-8.59,8.59h0Z" transform="translate(-115.51 -258.33)"/><path class="cls-1" d="M828.18,418.86a26.24,26.24,0,0,1-10.68-11.19,37.31,37.31,0,0,1-3.73-17.24V366.62a37.31,37.31,0,0,1,3.73-17.24,26.34,26.34,0,0,1,10.68-11.21,32.6,32.6,0,0,1,16.37-3.94,29.9,29.9,0,0,1,14.17,3.34,28.6,28.6,0,0,1,10.56,9.63A38.77,38.77,0,0,1,875,362.09h-4.23a16.74,16.74,0,0,1-13.46-6.79l-.39-.52a16.19,16.19,0,0,0-5.51-4.8,14.71,14.71,0,0,0-6.9-1.67,15.94,15.94,0,0,0-8.56,2.23,14.8,14.8,0,0,0-5.57,6.36,22.22,22.22,0,0,0-2,9.72v23.81a22.19,22.19,0,0,0,2,9.72,14.55,14.55,0,0,0,5.57,6.33,16.11,16.11,0,0,0,8.56,2.2,15.16,15.16,0,0,0,7-1.61,15.7,15.7,0,0,0,5.51-4.71l.05-.06a17.66,17.66,0,0,1,14.1-7.4H875a39.63,39.63,0,0,1-5.81,14.89,28.62,28.62,0,0,1-10.57,9.63,29.8,29.8,0,0,1-14.11,3.34A32.9,32.9,0,0,1,828.18,418.86Z" transform="translate(-115.51 -258.33)"/><path class="cls-1" d="M889.36,421.87h0V349.68a14.56,14.56,0,0,1,14.56-14.56h0v72.19A14.56,14.56,0,0,1,889.36,421.87Z" transform="translate(-115.51 -258.33)"/><path class="cls-1" d="M939.12,335.12h0l37.34,66.76L975,403.43V335.12h0A13.84,13.84,0,0,1,988.87,349v57.22a15.63,15.63,0,0,1-15.63,15.63h0L936,356.06l1.44-1.55v67.3h0A13.85,13.85,0,0,1,923.6,408V350.63A15.52,15.52,0,0,1,939.12,335.12Z" transform="translate(-115.51 -258.33)"/><path class="cls-1" d="M1015.66,335.12h48.74a13.66,13.66,0,0,1-13.66,13.67H1002A13.67,13.67,0,0,1,1015.66,335.12Zm10.44,7.1h14.2v79.65h0a14.2,14.2,0,0,1-14.2-14.2Z" transform="translate(-115.51 -258.33)"/><path class="cls-1" d="M1089.4,335.06h0v86.81h0a14.26,14.26,0,0,1-14.26-14.26V349.32A14.27,14.27,0,0,1,1089.4,335.06Zm-8.35,37.35h29.89a9.35,9.35,0,0,0,8.83-5.61,15.38,15.38,0,0,0,1.31-6.26,14.62,14.62,0,0,0-1.25-6.21,9.57,9.57,0,0,0-3.55-4.14,9.68,9.68,0,0,0-5.34-1.46h-29.89v-5.05a8.62,8.62,0,0,1,8.61-8.62h21.7a25.54,25.54,0,0,1,12.88,3.17,21.85,21.85,0,0,1,8.62,8.94,30.67,30.67,0,0,1,0,26.79,21.82,21.82,0,0,1-8.65,9,25.58,25.58,0,0,1-12.85,3.16h-30.31Zm20.94,11,14.79-2.75,22.79,41.23h0a28.5,28.5,0,0,1-25.16-15.12Z" transform="translate(-115.51 -258.33)"/><path class="cls-1" d="M1181,335.12h.91a6.54,6.54,0,0,1,6.13,4.25l30.88,82.23a.2.2,0,0,1-.18.27h0a21.17,21.17,0,0,1-20-14.22L1182.17,360a1,1,0,0,0-1.9,0l-16.55,47.65a21.15,21.15,0,0,1-20,14.22h0a.2.2,0,0,1-.19-.27l30.74-81.86A7.13,7.13,0,0,1,1181,335.12Zm-8.71,56.62h32a.2.2,0,0,1,.2.2V405.2a.2.2,0,0,1-.2.2H1159a.19.19,0,0,1-.19-.2h0A13.46,13.46,0,0,1,1172.25,391.74Z" transform="translate(-115.51 -258.33)"/><path class="cls-1" d="M1216.6,335.12h48.74A13.67,13.67,0,0,1,1279,348.79h-48.74a13.66,13.66,0,0,1-13.66-13.67Zm24.1,7.1h14.2v65.45a14.2,14.2,0,0,1-14.2,14.2h0Z" transform="translate(-115.51 -258.33)"/></svg>