<svg id="Calque_1" data-name="Calque 1" xmlns="http://www.w3.org/2000/svg" viewBox="0 0 489 489"><defs><style>.cls-1{fill:#db6b49;}.cls-2{fill:none;stroke:#db6b49;stroke-linecap:round;stroke-linejoin:round;stroke-width:14px;}</style></defs><path class="cls-1" d="M256.5,33a223.56,223.56,0,0,1,87,429.44,223.56,223.56,0,0,1-174-411.88A222.07,222.07,0,0,1,256.5,33m0-21C121.47,12,12,121.47,12,256.5S121.47,501,256.5,501,501,391.53,501,256.5,391.53,12,256.5,12Z" transform="translate(-12 -12)"/><path class="cls-2" d="M382.88,170.4V319.92a16.46,16.46,0,0,1-16.46,16.46h-220A16.46,16.46,0,0,1,130,319.92V170.42A16.45,16.45,0,0,1,146.49,154L163,154l141.44,0L272,202s-50-1-34,60a203.6,203.6,0,0,1,39.8-9.17A20.81,20.81,0,0,0,295.74,237,21.3,21.3,0,0,0,294,223l55.58-69.06h16.83A16.47,16.47,0,0,1,382.88,170.4Z" transform="translate(-12 -12)"/><line class="cls-2" x1="118" y1="274.88" x2="138" y2="274.88"/><line class="cls-2" x1="370.88" y1="274.88" x2="185.25" y2="274.88"/><path class="cls-2" d="M243.75,336.38,235,372H213.94a9.18,9.18,0,0,0-9.19,9.19v8.43" transform="translate(-12 -12)"/><path class="cls-2" d="M268.88,336.38,277.5,372h24.94a5.81,5.81,0,0,1,5.81,5.81v13.31" transform="translate(-12 -12)"/><line class="cls-2" x1="164" y1="384" x2="321.75" y2="384"/><line class="cls-2" x1="200" y1="361" x2="290" y2="361"/><path class="cls-2" d="M353.44,149.15l-3.86,4.79L294,223a21.3,21.3,0,0,1,1.74,14,20.81,20.81,0,0,1-17.94,15.81A203.6,203.6,0,0,0,238,262c-16-61,34-60,34-60l32.44-48,15.37-22.76a26.75,26.75,0,0,1,16.1-11.26c7.81-1.77,13.14.65,16.75,4.4A18.84,18.84,0,0,1,353.44,149.15Z" transform="translate(-12 -12)"/><line class="cls-2" x1="278.06" y1="169.13" x2="301.88" y2="186.3"/><line class="cls-2" x1="260" y1="191" x2="283.33" y2="210.34"/></svg>