<svg xmlns="http://www.w3.org/2000/svg" width="1108.49997" height="59" viewBox="0 0 1108.49997 59">
  <g>
    <line x1="622.99997" y1="29.29729" x2="1108.49997" y2="29.29729" style="fill: #fff"/>
    <path d="M1067.41211,477.2973c39.877-9.55441,80.69044-14.42221,121.375-18.04288,111.24125-8.55591,223.59177-7.19922,333.78135,11.63069,10.11457,1.83184,20.2292,3.84109,30.3437,6.41219-10.1145,2.57108-20.22913,4.58032-30.34375,6.4112-110.19109,18.831-222.53831,20.18738-333.78122,11.63233-40.68607-3.62151-81.49519-8.489-121.375-18.04353Z" transform="translate(-444.41219 -448)" style="fill: #fff"/>
  </g>
  <circle cx="554.08781" cy="29.5" r="24" style="fill: #fff;stroke: #fff;stroke-miterlimit: 10;stroke-width: 11px"/>
  <g>
    <line y1="29.29727" x2="485.5" y2="29.29727" style="fill: #fff"/>
    <path d="M444.4122,477.29727c39.8769-9.55438,80.69041-14.4222,121.37492-18.04285,111.24123-8.55592,223.59174-7.19925,333.78135,11.63069,10.11457,1.83181,20.22914,3.84106,30.3437,6.41216-10.11456,2.57108-20.22913,4.58035-30.34375,6.4112-110.19111,18.831-222.53833,20.1874-333.78122,11.63233-40.68607-3.62151-81.49527-8.489-121.375-18.04353Z" transform="translate(-444.41219 -448)" style="fill: #fff"/>
  </g>
</svg>
